<svg xmlns="http://www.w3.org/2000/svg" viewBox="0 0 500 500">
  <style>
  path {
    fill: #043d78;
  }
  @media (prefers-color-scheme: dark) {
    path {
      fill: #fff;
    }
  }
</style>
  <path d="M223.62352,180.006c5.62888,0,9.77967.86148,13.75931,3.84585,2.16852,1.61879,4.5218,4.22518,7.13589,4.93848,3.601.92079,6.21511-3.87636,8.82086-5.33918,4.41076-2.49471,11.43488-1.64844,15.75672.349,12.55643,5.76954,19.29085,17.94732,28.69107,27.641a611.522,611.522,0,0,0,64.66707,58.05049c2.99958,2.16852,6.03718,4.38114,9.05125,6.56411,2.48023,1.78226,5.0198,4.44045,8.05664,5.12324,2.54717.11938,5.1164.238,7.678.34216,10.54378.16262,21.05791-.53528,32.12182-.53528,3.23753-1.45532,11.96179.52008,15.534.52008,0,.65314.25924,1.03939-.51251,1.03939-5.28672,3.51967-14.81392,1.70775-21.74908,2.13887q-15.26936,1.84879-30.54785,3.66784-14.26683,1.22506-28.50554,2.40584c-13.573.43027-26.61988-.44556-40.37083-.44556-15.63053,0-31.96587.72765-47.64813.49042q-8.53228-1.00251-17.09345-1.97539c-11.28661-.53452-22.12012-.65314-33.06461-1.84157-4.32183-.46-9.35611.08887-13.38822-1.17331-7.78907-2.465-2.84371-10.30646-5.79923-15.91937-1.54427-2.91062-5.47985-4.797-8.36766-5.89576-8.41328-3.22322-17.4797-6.282-26.91717-7.678-6.94277-1.05461-15.09525-.98009-22.25316-.75731-4.448.13382-8.85887-.13382-12.34128,1.70775-.27449.14826-5.24946,3.84652-5.24946,1.97539-.62425-.68365-1.26218-1.36635-1.88643-2.06435-2.11606-1.21809-5.695-1.00975-8.465-1.09871-9.02916-.2973-17.47894.56418-26.93086.56418-3.39344,0-7.35867.17792-10.232-.83182-.57178-.22279-1.15877-.47522-1.15877-1.23253a24.889,24.889,0,0,1,10.87833-3.10375c1.29944-.59384,3.60863-.53453,5.18256-.53453,1.32148-.57939,3.58657-.50487,5.1757-.50487,3.73485-1.73741,13.43236-1.0395,18.11764-1.0395,2.903-1.29259,11.33075-.50554,15.02149-.50554,1.64844-.81661,3.30375-1.618,4.93772-2.42019,6.66751-4.515,12.51917-11.04866,18.199-16.90032q10.08-11.91735,20.15994-23.85372c7.00967-8.227,13.77375-22.08971,26.61227-22.08971,4.91567-2.19827,12.19983,3.83131,16.50646,3.48241C215.84209,186.8894,221.32194,181.60192,223.62352,180.006Zm35.21108,10.36586v.51932c-11.46456,5.27227,7.93046,27.66308,12.80887,32.69736,3.89835,4.03974,9.10292,7.27732,12.0067,11.82117.96488,1.54428,1.58153,4.67768.02965,6.1482-1.77466,1.63323-4.775-.96565-6.08889-2.10845-9.40021-8.30151-18.80119-16.752-27.362-26.44956q-6.81691-8.46385-13.6551-16.91857a8.18612,8.18612,0,0,0-5.23505-2.70228c-10.07617-.54983-18.97911,16.66612-24.979,22.6805a133.02756,133.02756,0,0,1-21.05031,17.27136c-2.0864,1.35115-5.60607,4.67768-8.28706,4.67768,0,.6828.15587.52008-.51932.52008v-.52008h-.52769c.81662-6.5048,9.00712-11.3756,13.32895-15.68223,5.98472-5.99993,11.6501-12.653,14.28623-20.512.83107-2.53957,1.0835-6.40824-1.31464-8.21255a5.72955,5.72955,0,0,0-5.57642-.12631c-3.8238,2.21262-7.17238,6.04412-10.48447,9.185-9.40782,8.82473-16.93,19.45823-26.464,28.44254-2.183,2.0347-4.59632,2.3913-7.01652,3.87627a43.423,43.423,0,0,0-9.45268,8.6429,2.78183,2.78183,0,0,0-.958,1.63314h1.04016c4.48458,1.85687,10.499,1.47061,15.49671,2.243,11.49425,1.70784,23.35189,2.50915,34.0888,5.82133,13.17308,4.039,20.442,19.27566,33.71852,23.12227,3.17066.90558,6.84619.77252,10.40311.9953,7.51455.47513,15.11806,1.158,22.78848,1.52906q30.55127,1.75985,61.117,3.53487c11.21213,0,22.45467.01445,33.6592.0441,1.03183-.17792,2.072-.34139,3.11136-.51941,1.55187-.68346,8.2787-.23789,8.2787-2.06426h-.51929q-9.21095-6.61619-18.46667-13.21717-12.69742-10.84883-25.38735-21.68216c-15.22146-13.4392-28.00068-29.78978-43.72017-42.73637C271.86625,197.329,266.84642,191.96779,258.8346,190.37181Z" fill="#043d78"/><path d="M119.54368,266.99691c21.36965,0,43.267,1.98984,58.8154,13.21718a30.20113,30.20113,0,0,1,9.63061,11.58318c.97248,2.52513,1.96778,5.04949,2.9327,7.55941,3.141,5.36047,9.445,5.96951,15.60845,5.96951,1.16562-.71245,3.61623-.51932,5.18255-.51932,1.79747-.98009,4.96737-1.02495,7.2469-1.02495,2.91823-1.35114,8.42092-1.0394,11.91093-1.0394,1.94494-.89113,5.4129-.52008,7.76619-.52008h18.13284c1.723-.77175,4.84876-.16347,6.72762-.07375,4.48451.02965,8.98427.0593,13.462.07375,1.73744-.698,4.66323-.51932,6.72683-.51932,1.91608-1.08426,6.95036-1.02495,9.32646-1.02495,1.485-.62349,3.89832-.52008,5.70263-.52008,2.4354-1.09871,6.92075-.48967,9.81613-.57863,12.16257-.38626,24.65973.0441,36.7774.0441,1.71535-.71245,4.84876-.16347,6.73519-.05931,4.8632.238,9.92714.47522,14.50141.54974q15.2705.53376,30.55545,1.05384h22.26083c3.11131-.1034,6.22267-.22278,9.31121-.34139,7.82629.25243,16.06849,3.17826,24.33275,3.44515a181.31755,181.31755,0,0,1,30.12433,3.35694c.80217.14827,3.03684-.03041,3.03684.80141h.52008v1.0394h-.52008c-4.03138,2.13887-15.25872,1.04016-20.71651,1.04016q-27.45475.02154-54.88744.02956c-5.933.08906-12.26674.46011-18.64532.46011q-6.98344-.22254-13.98133-.46011c-9.861.95044-19.69232,1.93063-29.53807,2.88107-8.30154.4007-16.55819.77175-24.85286,1.14356q-25.87283.37866-51.76924.71236c-3.97967.80226-7.92969,1.60434-11.917,2.40584-10.819,1.17322-22.55809.77243-34.16408,1.14357-11.93976.371-26.664,2.58443-38.27-.26688-5.53232-1.35191-10.53694-6.71314-10.72928-12.72751-.12625-3.68238,1.08347-6.54891-.92082-9.69752-2.22022-3.42994-7.75938-4.61846-11.00455-6.59376-6.69793-4.06864-13.07575-10.57344-21.44417-11.50867-31.99556-3.62392-65.892,1.35115-98.86765.32619-5.04949-.14836-29.99885-.56418-31.00862-4.29142-.75731-2.74714,1.745-4.29218,4.1287-4.67767,3.4079-.57939,7.27656,1.06905,10.33621,1.51461q9.066.13346,18.09559.25244c3.10375-1.396,8.79878-.57939,12.4074-.57939,9.65265,0,19.2095-.98009,29.018-.98009,2.3837-1.06905,12.34049-.52008,15.534-.52008v-.50487a82.51006,82.51006,0,0,1,10.35069-.53453C115.39976,267.71012,117.47172,267.368,119.54368,266.99691Z" fill="#043d78"/><path d="M451.4763,277.882c1.84157.04495,7.24766.3126,7.24766,2.58453h-.52008c-1.0546.43035-2.11605.84627-3.17066,1.24764-.73526.14836-8.747.28218-8.747-.72832h-.51251v-.51932C447.51867,278.8926,449.33819,278.60975,451.4763,277.882Z" fill="#043d78"/>
</svg>
